STARTFONT 2.1
COMMENT  
COMMENT  WARNING:  This bdf file was generated from an X server using
COMMENT  xbdfdump.  The resulting font is subject to the same copyright,
COMMENT  license, and trademark restrictions as the original font.  The
COMMENT  author and distributors of xbdfdump disclaim all liability for
COMMENT  misuse of the program or its output.
COMMENT  
FONT -Phaisarn-Light-Medium-R-Normal--20-200-75-75-C-100-tis620-0
SIZE 20 75 75
FONTBOUNDINGBOX 16 18 -8 -4
STARTPROPERTIES 22
FONTNAME_REGISTRY ""
FOUNDRY "Phaisarn"
FAMILY_NAME "Light"
WEIGHT_NAME "Medium"
SLANT "R"
SETWIDTH_NAME "Normal"
ADD_STYLE_NAME ""
PIXEL_SIZE 20
POINT_SIZE 200
RESOLUTION_X 75
RESOLUTION_Y 75
SPACING "C"
AVERAGE_WIDTH 100
CHARSET_REGISTRY "tis620"
CHARSET_ENCODING "0"
COPYRIGHT "Copyright 1997  Phaisarn Techajaruwong, TITech."
WEIGHT 10
X_HEIGHT 18
QUAD_WIDTH 10
DEFAULT_CHAR 0
FONT_ASCENT 18
FONT_DESCENT 5
ENDPROPERTIES
CHARS 256
STARTCHAR C000
ENCODING 0
SWIDTH 384 0
DWIDTH 8 0
BBX 8 16 0 -4
BITMAP
00
00
7e
c3
99
99
f3
e7
e7
ff
e7
e7
7e
00
00
00
ENDCHAR
STARTCHAR C001
ENCODING 1
SWIDTH 384 0
DWIDTH 8 0
BBX 8 16 0 -4
BITMAP
00
00
00
00
00
76
dc
00
76
dc
00
00
00
00
00
00
ENDCHAR
STARTCHAR C002
ENCODING 2
SWIDTH 384 0
DWIDTH 8 0
BBX 8 16 0 -4
BITMAP
00
00
6e
f8
d8
d8
dc
d8
d8
d8
f8
6e
00
00
00
00
ENDCHAR
STARTCHAR C003
ENCODING 3
SWIDTH 384 0
DWIDTH 8 0
BBX 8 16 0 -4
BITMAP
00
00
00
00
00
6e
db
db
df
d8
db
6e
00
00
00
00
ENDCHAR
STARTCHAR C004
ENCODING 4
SWIDTH 384 0
DWIDTH 8 0
BBX 8 16 0 -4
BITMAP
00
00
00
00
10
38
7c
fe
7c
38
10
00
00
00
00
00
ENDCHAR
STARTCHAR C005
ENCODING 5
SWIDTH 384 0
DWIDTH 8 0
BBX 8 16 0 -4
BITMAP
00
88
88
f8
88
88
00
3e
08
08
08
08
00
00
00
00
ENDCHAR
STARTCHAR C006
ENCODING 6
SWIDTH 384 0
DWIDTH 8 0
BBX 8 16 0 -4
BITMAP
00
f8
80
e0
80
80
00
3e
20
38
20
20
00
00
00
00
ENDCHAR
STARTCHAR C007
ENCODING 7
SWIDTH 384 0
DWIDTH 8 0
BBX 8 16 0 -4
BITMAP
00
70
88
80
88
70
00
3c
22
3c
24
22
00
00
00
00
ENDCHAR
STARTCHAR C010
ENCODING 8
SWIDTH 384 0
DWIDTH 8 0
BBX 8 16 0 -4
BITMAP
00
80
80
80
80
f8
00
3e
20
38
20
20
00
00
00
00
ENDCHAR
STARTCHAR C011
ENCODING 9
SWIDTH 384 0
DWIDTH 8 0
BBX 8 16 0 -4
BITMAP
11
44
11
44
11
44
11
44
11
44
11
44
11
44
11
44
ENDCHAR
STARTCHAR C012
ENCODING 10
SWIDTH 384 0
DWIDTH 8 0
BBX 8 16 0 -4
BITMAP
55
aa
55
aa
55
aa
55
aa
55
aa
55
aa
55
aa
55
aa
ENDCHAR
STARTCHAR C013
ENCODING 11
SWIDTH 384 0
DWIDTH 8 0
BBX 8 16 0 -4
BITMAP
dd
77
dd
77
dd
77
dd
77
dd
77
dd
77
dd
77
dd
77
ENDCHAR
STARTCHAR C014
ENCODING 12
SWIDTH 384 0
DWIDTH 8 0
BBX 8 16 0 -4
BITMAP
ff
ff
ff
ff
ff
ff
ff
ff
ff
ff
ff
ff
ff
ff
ff
ff
ENDCHAR
STARTCHAR C015
ENCODING 13
SWIDTH 384 0
DWIDTH 8 0
BBX 8 16 0 -4
BITMAP
00
00
00
00
00
00
00
ff
ff
ff
ff
ff
ff
ff
ff
ff
ENDCHAR
STARTCHAR C016
ENCODING 14
SWIDTH 384 0
DWIDTH 8 0
BBX 8 16 0 -4
BITMAP
ff
ff
ff
ff
ff
ff
ff
00
00
00
00
00
00
00
00
00
ENDCHAR
STARTCHAR C017
ENCODING 15
SWIDTH 384 0
DWIDTH 8 0
BBX 8 16 0 -4
BITMAP
f0
f0
f0
f0
f0
f0
f0
f0
f0
f0
f0
f0
f0
f0
f0
f0
ENDCHAR
STARTCHAR C020
ENCODING 16
SWIDTH 384 0
DWIDTH 8 0
BBX 8 16 0 -4
BITMAP
0f
0f
0f
0f
0f
0f
0f
0f
0f
0f
0f
0f
0f
0f
0f
0f
ENDCHAR
STARTCHAR C021
ENCODING 17
SWIDTH 384 0
DWIDTH 8 0
BBX 8 16 0 -4
BITMAP
00
88
c8
a8
98
88
00
20
20
20
20
3e
00
00
00
00
ENDCHAR
STARTCHAR C022
ENCODING 18
SWIDTH 384 0
DWIDTH 8 0
BBX 8 16 0 -4
BITMAP
00
88
88
50
50
20
00
3e
08
08
08
08
00
00
00
00
ENDCHAR
STARTCHAR C023
ENCODING 19
SWIDTH 384 0
DWIDTH 8 0
BBX 8 16 0 -4
BITMAP
00
00
00
00
0e
38
e0
38
0e
00
fe
00
00
00
00
00
ENDCHAR
STARTCHAR C024
ENCODING 20
SWIDTH 384 0
DWIDTH 8 0
BBX 8 16 0 -4
BITMAP
00
00
00
00
e0
38
0e
38
e0
00
fe
00
00
00
00
00
ENDCHAR
STARTCHAR C025
ENCODING 21
SWIDTH 384 0
DWIDTH 8 0
BBX 8 16 0 -4
BITMAP
00
00
00
06
0c
fe
18
30
fe
60
c0
00
00
00
00
00
ENDCHAR
STARTCHAR C026
ENCODING 22
SWIDTH 384 0
DWIDTH 8 0
BBX 8 16 0 -4
BITMAP
00
00
00
00
06
1e
7e
fe
7e
1e
06
00
00
00
00
00
ENDCHAR
STARTCHAR C027
ENCODING 23
SWIDTH 384 0
DWIDTH 8 0
BBX 8 16 0 -4
BITMAP
00
00
00
00
c0
f0
fc
fe
fc
f0
c0
00
00
00
00
00
ENDCHAR
STARTCHAR C030
ENCODING 24
SWIDTH 384 0
DWIDTH 8 0
BBX 8 16 0 -4
BITMAP
00
00
18
3c
7e
18
18
18
18
18
18
18
00
00
00
00
ENDCHAR
STARTCHAR C031
ENCODING 25
SWIDTH 384 0
DWIDTH 8 0
BBX 8 16 0 -4
BITMAP
00
00
18
18
18
18
18
18
18
7e
3c
18
00
00
00
00
ENDCHAR
STARTCHAR C032
ENCODING 26
SWIDTH 384 0
DWIDTH 8 0
BBX 8 16 0 -4
BITMAP
00
00
00
00
00
18
0c
fe
0c
18
00
00
00
00
00
00
ENDCHAR
STARTCHAR C033
ENCODING 27
SWIDTH 384 0
DWIDTH 8 0
BBX 8 16 0 -4
BITMAP
00
00
00
00
00
30
60
fe
60
30
00
00
00
00
00
00
ENDCHAR
STARTCHAR C034
ENCODING 28
SWIDTH 384 0
DWIDTH 8 0
BBX 8 16 0 -4
BITMAP
00
00
18
3c
7e
18
18
18
18
7e
3c
18
00
00
00
00
ENDCHAR
STARTCHAR C035
ENCODING 29
SWIDTH 384 0
DWIDTH 8 0
BBX 8 16 0 -4
BITMAP
00
00
00
00
00
28
6c
fe
6c
28
00
00
00
00
00
00
ENDCHAR
STARTCHAR C036
ENCODING 30
SWIDTH 384 0
DWIDTH 8 0
BBX 8 16 0 -4
BITMAP
00
00
00
00
06
36
66
fe
60
30
00
00
00
00
00
00
ENDCHAR
STARTCHAR C037
ENCODING 31
SWIDTH 384 0
DWIDTH 8 0
BBX 8 16 0 -4
BITMAP
00
00
00
00
00
80
fe
6e
6c
6c
6c
6c
00
00
00
00
ENDCHAR
STARTCHAR space
ENCODING 32
SWIDTH 384 0
DWIDTH 8 0
BBX 8 16 0 -4
BITMAP
00
00
00
00
00
00
00
00
00
00
00
00
00
00
00
00
ENDCHAR
STARTCHAR exclam
ENCODING 33
SWIDTH 384 0
DWIDTH 8 0
BBX 8 16 0 -4
BITMAP
00
00
00
10
38
38
38
10
10
00
10
10
00
00
00
00
ENDCHAR
STARTCHAR quotedbl
ENCODING 34
SWIDTH 384 0
DWIDTH 8 0
BBX 8 16 0 -4
BITMAP
00
66
66
66
24
00
00
00
00
00
00
00
00
00
00
00
ENDCHAR
STARTCHAR numbersign
ENCODING 35
SWIDTH 384 0
DWIDTH 8 0
BBX 8 16 0 -4
BITMAP
00
00
00
12
12
7e
24
48
48
fc
90
90
00
00
00
00
ENDCHAR
STARTCHAR dollar
ENCODING 36
SWIDTH 384 0
DWIDTH 8 0
BBX 8 16 0 -4
BITMAP
00
10
10
7c
92
90
90
7c
12
12
92
7c
10
10
00
00
ENDCHAR
STARTCHAR percent
ENCODING 37
SWIDTH 384 0
DWIDTH 8 0
BBX 8 16 0 -4
BITMAP
00
00
00
00
c2
c6
0c
18
30
60
c6
86
00
00
00
00
ENDCHAR
STARTCHAR ampersand
ENCODING 38
SWIDTH 384 0
DWIDTH 8 0
BBX 8 16 0 -4
BITMAP
00
00
00
30
48
48
30
54
88
88
94
66
00
00
00
00
ENDCHAR
STARTCHAR apostrophe
ENCODING 39
SWIDTH 384 0
DWIDTH 8 0
BBX 8 16 0 -4
BITMAP
00
18
18
18
30
00
00
00
00
00
00
00
00
00
00
00
ENDCHAR
STARTCHAR parenleft
ENCODING 40
SWIDTH 384 0
DWIDTH 8 0
BBX 8 16 0 -4
BITMAP
00
00
00
0c
10
20
20
20
20
20
10
0c
00
00
00
00
ENDCHAR
STARTCHAR parenright
ENCODING 41
SWIDTH 384 0
DWIDTH 8 0
BBX 8 16 0 -4
BITMAP
00
00
00
30
08
04
04
04
04
04
08
30
00
00
00
00
ENDCHAR
STARTCHAR asterisk
ENCODING 42
SWIDTH 384 0
DWIDTH 8 0
BBX 8 16 0 -4
BITMAP
00
00
00
00
00
66
18
7e
18
66
00
00
00
00
00
00
ENDCHAR
STARTCHAR plus
ENCODING 43
SWIDTH 384 0
DWIDTH 8 0
BBX 8 16 0 -4
BITMAP
00
00
00
00
00
10
10
7c
10
10
00
00
00
00
00
00
ENDCHAR
STARTCHAR comma
ENCODING 44
SWIDTH 384 0
DWIDTH 8 0
BBX 8 16 0 -4
BITMAP
00
00
00
00
00
00
00
00
00
18
18
18
30
00
00
00
ENDCHAR
STARTCHAR minus
ENCODING 45
SWIDTH 384 0
DWIDTH 8 0
BBX 8 16 0 -4
BITMAP
00
00
00
00
00
00
00
fe
00
00
00
00
00
00
00
00
ENDCHAR
STARTCHAR period
ENCODING 46
SWIDTH 384 0
DWIDTH 8 0
BBX 8 16 0 -4
BITMAP
00
00
00
00
00
00
00
00
00
00
18
18
00
00
00
00
ENDCHAR
STARTCHAR slash
ENCODING 47
SWIDTH 384 0
DWIDTH 8 0
BBX 8 16 0 -4
BITMAP
00
00
00
00
00
02
04
08
10
20
40
00
00
00
00
00
ENDCHAR
STARTCHAR 0
ENCODING 48
SWIDTH 384 0
DWIDTH 8 0
BBX 8 16 0 -4
BITMAP
00
00
00
7c
86
86
8a
92
a2
c2
c2
7c
00
00
00
00
ENDCHAR
STARTCHAR 1
ENCODING 49
SWIDTH 384 0
DWIDTH 8 0
BBX 8 16 0 -4
BITMAP
00
00
00
10
30
70
10
10
10
10
10
7c
00
00
00
00
ENDCHAR
STARTCHAR 2
ENCODING 50
SWIDTH 384 0
DWIDTH 8 0
BBX 8 16 0 -4
BITMAP
00
00
00
3c
42
02
04
08
10
20
42
7e
00
00
00
00
ENDCHAR
STARTCHAR 3
ENCODING 51
SWIDTH 384 0
DWIDTH 8 0
BBX 8 16 0 -4
BITMAP
00
00
00
3c
42
02
02
3c
02
02
42
3c
00
00
00
00
ENDCHAR
STARTCHAR 4
ENCODING 52
SWIDTH 384 0
DWIDTH 8 0
BBX 8 16 0 -4
BITMAP
00
00
00
08
18
28
48
fc
08
08
08
1c
00
00
00
00
ENDCHAR
STARTCHAR 5
ENCODING 53
SWIDTH 384 0
DWIDTH 8 0
BBX 8 16 0 -4
BITMAP
00
00
00
fc
80
80
80
fc
02
02
82
7c
00
00
00
00
ENDCHAR
STARTCHAR 6
ENCODING 54
SWIDTH 384 0
DWIDTH 8 0
BBX 8 16 0 -4
BITMAP
00
00
00
7c
80
80
80
fc
82
82
82
7c
00
00
00
00
ENDCHAR
STARTCHAR 7
ENCODING 55
SWIDTH 384 0
DWIDTH 8 0
BBX 8 16 0 -4
BITMAP
00
00
00
fe
82
02
04
08
10
10
10
10
00
00
00
00
ENDCHAR
STARTCHAR 8
ENCODING 56
SWIDTH 384 0
DWIDTH 8 0
BBX 8 16 0 -4
BITMAP
00
00
00
7c
82
82
82
7c
82
82
82
7c
00
00
00
00
ENDCHAR
STARTCHAR 9
ENCODING 57
SWIDTH 384 0
DWIDTH 8 0
BBX 8 16 0 -4
BITMAP
00
00
00
7c
82
82
82
7e
02
02
04
78
00
00
00
00
ENDCHAR
STARTCHAR colon
ENCODING 58
SWIDTH 384 0
DWIDTH 8 0
BBX 8 16 0 -4
BITMAP
00
00
00
00
18
18
00
00
00
18
18
00
00
00
00
00
ENDCHAR
STARTCHAR semicolon
ENCODING 59
SWIDTH 384 0
DWIDTH 8 0
BBX 8 16 0 -4
BITMAP
00
00
00
00
18
18
00
00
00
18
18
30
00
00
00
00
ENDCHAR
STARTCHAR less
ENCODING 60
SWIDTH 384 0
DWIDTH 8 0
BBX 8 16 0 -4
BITMAP
00
00
00
04
08
10
20
40
20
10
08
04
00
00
00
00
ENDCHAR
STARTCHAR equal
ENCODING 61
SWIDTH 384 0
DWIDTH 8 0
BBX 8 16 0 -4
BITMAP
00
00
00
00
00
fe
00
00
fe
00
00
00
00
00
00
00
ENDCHAR
STARTCHAR greater
ENCODING 62
SWIDTH 384 0
DWIDTH 8 0
BBX 8 16 0 -4
BITMAP
00
00
00
20
10
08
04
02
04
08
10
20
00
00
00
00
ENDCHAR
STARTCHAR question
ENCODING 63
SWIDTH 384 0
DWIDTH 8 0
BBX 8 16 0 -4
BITMAP
00
00
00
38
44
44
08
10
10
00
10
10
00
00
00
00
ENDCHAR
STARTCHAR at
ENCODING 64
SWIDTH 384 0
DWIDTH 8 0
BBX 8 16 0 -4
BITMAP
00
00
38
44
82
9a
a6
a4
ae
92
40
3c
00
00
00
00
ENDCHAR
STARTCHAR A
ENCODING 65
SWIDTH 384 0
DWIDTH 8 0
BBX 8 16 0 -4
BITMAP
00
00
00
10
28
44
82
82
fe
82
82
82
00
00
00
00
ENDCHAR
STARTCHAR B
ENCODING 66
SWIDTH 384 0
DWIDTH 8 0
BBX 8 16 0 -4
BITMAP
00
00
00
fc
42
42
44
7c
42
42
42
fc
00
00
00
00
ENDCHAR
STARTCHAR C
ENCODING 67
SWIDTH 384 0
DWIDTH 8 0
BBX 8 16 0 -4
BITMAP
00
00
00
38
44
80
80
80
80
80
44
38
00
00
00
00
ENDCHAR
STARTCHAR D
ENCODING 68
SWIDTH 384 0
DWIDTH 8 0
BBX 8 16 0 -4
BITMAP
00
00
00
f8
44
42
42
42
42
42
44
f8
00
00
00
00
ENDCHAR
STARTCHAR E
ENCODING 69
SWIDTH 384 0
DWIDTH 8 0
BBX 8 16 0 -4
BITMAP
00
00
00
fe
42
40
48
78
48
42
42
fe
00
00
00
00
ENDCHAR
STARTCHAR F
ENCODING 70
SWIDTH 384 0
DWIDTH 8 0
BBX 8 16 0 -4
BITMAP
00
00
00
fe
42
40
48
78
48
40
40
f0
00
00
00
00
ENDCHAR
STARTCHAR G
ENCODING 71
SWIDTH 384 0
DWIDTH 8 0
BBX 8 16 0 -4
BITMAP
00
00
00
3c
42
80
80
9e
82
82
46
3a
00
00
00
00
ENDCHAR
STARTCHAR H
ENCODING 72
SWIDTH 384 0
DWIDTH 8 0
BBX 8 16 0 -4
BITMAP
00
00
00
82
82
82
82
fe
82
82
82
82
00
00
00
00
ENDCHAR
STARTCHAR I
ENCODING 73
SWIDTH 384 0
DWIDTH 8 0
BBX 8 16 0 -4
BITMAP
00
00
00
7c
10
10
10
10
10
10
10
7c
00
00
00
00
ENDCHAR
STARTCHAR J
ENCODING 74
SWIDTH 384 0
DWIDTH 8 0
BBX 8 16 0 -4
BITMAP
00
00
00
1e
04
04
04
04
84
84
84
78
00
00
00
00
ENDCHAR
STARTCHAR K
ENCODING 75
SWIDTH 384 0
DWIDTH 8 0
BBX 8 16 0 -4
BITMAP
00
00
00
e6
44
48
70
50
48
44
42
e3
00
00
00
00
ENDCHAR
STARTCHAR L
ENCODING 76
SWIDTH 384 0
DWIDTH 8 0
BBX 8 16 0 -4
BITMAP
00
00
00
f0
40
40
40
40
40
42
42
fe
00
00
00
00
ENDCHAR
STARTCHAR M
ENCODING 77
SWIDTH 384 0
DWIDTH 8 0
BBX 8 16 0 -4
BITMAP
00
00
00
82
c6
aa
92
82
82
82
82
82
00
00
00
00
ENDCHAR
STARTCHAR N
ENCODING 78
SWIDTH 384 0
DWIDTH 8 0
BBX 8 16 0 -4
BITMAP
00
00
00
82
c2
a2
92
8a
86
82
82
82
00
00
00
00
ENDCHAR
STARTCHAR O
ENCODING 79
SWIDTH 384 0
DWIDTH 8 0
BBX 8 16 0 -4
BITMAP
00
00
00
7c
82
82
82
82
82
82
82
7c
00
00
00
00
ENDCHAR
STARTCHAR P
ENCODING 80
SWIDTH 384 0
DWIDTH 8 0
BBX 8 16 0 -4
BITMAP
00
00
00
fc
42
42
42
7c
40
40
40
f0
00
00
00
00
ENDCHAR
STARTCHAR Q
ENCODING 81
SWIDTH 384 0
DWIDTH 8 0
BBX 8 16 0 -4
BITMAP
00
00
00
7c
82
82
82
82
82
b2
8a
7c
04
02
00
00
ENDCHAR
STARTCHAR R
ENCODING 82
SWIDTH 384 0
DWIDTH 8 0
BBX 8 16 0 -4
BITMAP
00
00
00
fc
42
42
42
7c
42
42
42
e7
00
00
00
00
ENDCHAR
STARTCHAR S
ENCODING 83
SWIDTH 384 0
DWIDTH 8 0
BBX 8 16 0 -4
BITMAP
00
00
00
7c
82
80
80
7c
02
82
82
7c
00
00
00
00
ENDCHAR
STARTCHAR T
ENCODING 84
SWIDTH 384 0
DWIDTH 8 0
BBX 8 16 0 -4
BITMAP
00
00
00
fe
92
10
10
10
10
10
10
38
00
00
00
00
ENDCHAR
STARTCHAR U
ENCODING 85
SWIDTH 384 0
DWIDTH 8 0
BBX 8 16 0 -4
BITMAP
00
00
00
82
82
82
82
82
82
82
44
38
00
00
00
00
ENDCHAR
STARTCHAR V
ENCODING 86
SWIDTH 384 0
DWIDTH 8 0
BBX 8 16 0 -4
BITMAP
00
00
00
82
82
82
82
82
82
44
28
10
00
00
00
00
ENDCHAR
STARTCHAR W
ENCODING 87
SWIDTH 384 0
DWIDTH 8 0
BBX 8 16 0 -4
BITMAP
00
00
00
82
82
82
92
92
92
ba
ee
44
00
00
00
00
ENDCHAR
STARTCHAR X
ENCODING 88
SWIDTH 384 0
DWIDTH 8 0
BBX 8 16 0 -4
BITMAP
00
00
00
c6
44
28
10
10
28
28
44
c6
00
00
00
00
ENDCHAR
STARTCHAR Y
ENCODING 89
SWIDTH 384 0
DWIDTH 8 0
BBX 8 16 0 -4
BITMAP
00
00
00
82
82
44
38
10
10
10
10
38
00
00
00
00
ENDCHAR
STARTCHAR Z
ENCODING 90
SWIDTH 384 0
DWIDTH 8 0
BBX 8 16 0 -4
BITMAP
00
00
00
fe
82
04
08
10
20
42
82
fe
00
00
00
00
ENDCHAR
STARTCHAR bracketleft
ENCODING 91
SWIDTH 384 0
DWIDTH 8 0
BBX 8 16 0 -4
BITMAP
00
00
00
3c
20
20
20
20
20
20
20
3c
00
00
00
00
ENDCHAR
STARTCHAR backslash
ENCODING 92
SWIDTH 384 0
DWIDTH 8 0
BBX 8 16 0 -4
BITMAP
00
00
00
00
00
80
40
20
10
08
04
00
00
00
00
00
ENDCHAR
STARTCHAR bracketright
ENCODING 93
SWIDTH 384 0
DWIDTH 8 0
BBX 8 16 0 -4
BITMAP
00
00
00
3c
04
04
04
04
04
04
04
3c
00
00
00
00
ENDCHAR
STARTCHAR asciicircum
ENCODING 94
SWIDTH 384 0
DWIDTH 8 0
BBX 8 16 0 -4
BITMAP
00
10
28
44
00
00
00
00
00
00
00
00
00
00
00
00
ENDCHAR
STARTCHAR underscore
ENCODING 95
SWIDTH 384 0
DWIDTH 8 0
BBX 8 16 0 -4
BITMAP
00
00
00
00
00
00
00
00
00
00
00
00
00
00
ff
00
ENDCHAR
STARTCHAR grave
ENCODING 96
SWIDTH 384 0
DWIDTH 8 0
BBX 8 16 0 -4
BITMAP
00
30
30
30
18
00
00
00
00
00
00
00
00
00
00
00
ENDCHAR
STARTCHAR a
ENCODING 97
SWIDTH 384 0
DWIDTH 8 0
BBX 8 16 0 -4
BITMAP
00
00
00
00
00
78
04
74
8c
84
8c
76
00
00
00
00
ENDCHAR
STARTCHAR b
ENCODING 98
SWIDTH 384 0
DWIDTH 8 0
BBX 8 16 0 -4
BITMAP
00
00
c0
40
40
78
44
42
42
42
44
78
00
00
00
00
ENDCHAR
STARTCHAR c
ENCODING 99
SWIDTH 384 0
DWIDTH 8 0
BBX 8 16 0 -4
BITMAP
00
00
00
00
00
3c
42
80
80
80
42
3c
00
00
00
00
ENDCHAR
STARTCHAR d
ENCODING 100
SWIDTH 384 0
DWIDTH 8 0
BBX 8 16 0 -4
BITMAP
00
00
0c
04
04
34
4c
84
84
84
4c
36
00
00
00
00
ENDCHAR
STARTCHAR e
ENCODING 101
SWIDTH 384 0
DWIDTH 8 0
BBX 8 16 0 -4
BITMAP
00
00
00
00
00
3c
42
fe
80
80
42
3c
00
00
00
00
ENDCHAR
STARTCHAR f
ENCODING 102
SWIDTH 384 0
DWIDTH 8 0
BBX 8 16 0 -4
BITMAP
00
00
38
44
44
40
f0
40
40
40
40
f0
00
00
00
00
ENDCHAR
STARTCHAR g
ENCODING 103
SWIDTH 384 0
DWIDTH 8 0
BBX 8 16 0 -4
BITMAP
00
00
00
00
00
36
4c
84
84
84
4c
34
04
84
78
00
ENDCHAR
STARTCHAR h
ENCODING 104
SWIDTH 384 0
DWIDTH 8 0
BBX 8 16 0 -4
BITMAP
00
00
c0
40
40
5c
62
42
42
42
42
e2
00
00
00
00
ENDCHAR
STARTCHAR i
ENCODING 105
SWIDTH 384 0
DWIDTH 8 0
BBX 8 16 0 -4
BITMAP
00
00
10
10
00
30
10
10
10
10
10
38
00
00
00
00
ENDCHAR
STARTCHAR j
ENCODING 106
SWIDTH 384 0
DWIDTH 8 0
BBX 8 16 0 -4
BITMAP
00
00
04
04
00
0e
04
04
04
04
04
04
44
44
38
00
ENDCHAR
STARTCHAR k
ENCODING 107
SWIDTH 384 0
DWIDTH 8 0
BBX 8 16 0 -4
BITMAP
00
00
e0
40
40
4c
48
70
50
48
44
e6
00
00
00
00
ENDCHAR
STARTCHAR l
ENCODING 108
SWIDTH 384 0
DWIDTH 8 0
BBX 8 16 0 -4
BITMAP
00
00
30
10
10
10
10
10
10
10
10
38
00
00
00
00
ENDCHAR
STARTCHAR m
ENCODING 109
SWIDTH 384 0
DWIDTH 8 0
BBX 8 16 0 -4
BITMAP
00
00
00
00
00
a4
da
92
92
92
92
82
00
00
00
00
ENDCHAR
STARTCHAR n
ENCODING 110
SWIDTH 384 0
DWIDTH 8 0
BBX 8 16 0 -4
BITMAP
00
00
00
00
00
dc
62
42
42
42
42
42
00
00
00
00
ENDCHAR
STARTCHAR o
ENCODING 111
SWIDTH 384 0
DWIDTH 8 0
BBX 8 16 0 -4
BITMAP
00
00
00
00
00
38
44
82
82
82
44
38
00
00
00
00
ENDCHAR
STARTCHAR p
ENCODING 112
SWIDTH 384 0
DWIDTH 8 0
BBX 8 16 0 -4
BITMAP
00
00
00
00
00
d8
64
42
42
42
64
58
40
40
f0
00
ENDCHAR
STARTCHAR q
ENCODING 113
SWIDTH 384 0
DWIDTH 8 0
BBX 8 16 0 -4
BITMAP
00
00
00
00
00
36
4c
84
84
84
4c
34
04
04
1e
00
ENDCHAR
STARTCHAR r
ENCODING 114
SWIDTH 384 0
DWIDTH 8 0
BBX 8 16 0 -4
BITMAP
00
00
00
00
00
d8
64
40
40
40
40
f0
00
00
00
00
ENDCHAR
STARTCHAR s
ENCODING 115
SWIDTH 384 0
DWIDTH 8 0
BBX 8 16 0 -4
BITMAP
00
00
00
00
00
7c
82
80
7c
02
82
7c
00
00
00
00
ENDCHAR
STARTCHAR t
ENCODING 116
SWIDTH 384 0
DWIDTH 8 0
BBX 8 16 0 -4
BITMAP
00
00
20
20
20
f8
20
20
20
20
24
18
00
00
00
00
ENDCHAR
STARTCHAR u
ENCODING 117
SWIDTH 384 0
DWIDTH 8 0
BBX 8 16 0 -4
BITMAP
00
00
00
00
00
84
84
84
84
84
4c
36
00
00
00
00
ENDCHAR
STARTCHAR v
ENCODING 118
SWIDTH 384 0
DWIDTH 8 0
BBX 8 16 0 -4
BITMAP
00
00
00
00
00
42
42
42
42
42
24
18
00
00
00
00
ENDCHAR
STARTCHAR w
ENCODING 119
SWIDTH 384 0
DWIDTH 8 0
BBX 8 16 0 -4
BITMAP
00
00
00
00
00
82
82
92
92
92
92
6c
00
00
00
00
ENDCHAR
STARTCHAR x
ENCODING 120
SWIDTH 384 0
DWIDTH 8 0
BBX 8 16 0 -4
BITMAP
00
00
00
00
00
c6
44
28
10
28
44
c6
00
00
00
00
ENDCHAR
STARTCHAR y
ENCODING 121
SWIDTH 384 0
DWIDTH 8 0
BBX 8 16 0 -4
BITMAP
00
00
00
00
00
82
82
82
82
82
46
3a
02
04
78
00
ENDCHAR
STARTCHAR z
ENCODING 122
SWIDTH 384 0
DWIDTH 8 0
BBX 8 16 0 -4
BITMAP
00
00
00
00
00
fe
84
08
10
20
42
fe
00
00
00
00
ENDCHAR
STARTCHAR braceleft
ENCODING 123
SWIDTH 384 0
DWIDTH 8 0
BBX 8 16 0 -4
BITMAP
00
00
0c
10
10
10
60
10
10
10
10
0c
00
00
00
00
ENDCHAR
STARTCHAR bar
ENCODING 124
SWIDTH 384 0
DWIDTH 8 0
BBX 8 16 0 -4
BITMAP
00
00
10
10
10
10
10
10
10
10
10
10
00
00
00
00
ENDCHAR
STARTCHAR braceright
ENCODING 125
SWIDTH 384 0
DWIDTH 8 0
BBX 8 16 0 -4
BITMAP
00
00
30
08
08
08
06
08
08
08
08
30
00
00
00
00
ENDCHAR
STARTCHAR asciitilde
ENCODING 126
SWIDTH 384 0
DWIDTH 8 0
BBX 8 16 0 -4
BITMAP
00
00
76
dc
00
00
00
00
00
00
00
00
00
00
00
00
ENDCHAR
STARTCHAR C177
ENCODING 127
SWIDTH 384 0
DWIDTH 8 0
BBX 8 16 0 -4
BITMAP
00
66
00
66
66
66
66
3c
18
18
18
3c
00
00
00
00
ENDCHAR
STARTCHAR C200
ENCODING 128
SWIDTH 384 0
DWIDTH 8 0
BBX 8 16 0 -4
BITMAP
60
30
00
38
6c
c6
c6
fe
c6
c6
c6
c6
00
00
00
00
ENDCHAR
STARTCHAR C201
ENCODING 129
SWIDTH 384 0
DWIDTH 8 0
BBX 8 16 0 -4
BITMAP
0c
18
00
38
6c
c6
c6
fe
c6
c6
c6
c6
00
00
00
00
ENDCHAR
STARTCHAR C202
ENCODING 130
SWIDTH 384 0
DWIDTH 8 0
BBX 8 16 0 -4
BITMAP
10
38
6c
00
38
6c
c6
c6
fe
c6
c6
c6
00
00
00
00
ENDCHAR
STARTCHAR C203
ENCODING 131
SWIDTH 384 0
DWIDTH 8 0
BBX 8 16 0 -4
BITMAP
76
dc
00
38
6c
c6
c6
fe
c6
c6
c6
c6
00
00
00
00
ENDCHAR
STARTCHAR C204
ENCODING 132
SWIDTH 384 0
DWIDTH 8 0
BBX 8 16 0 -4
BITMAP
00
6c
00
38
6c
c6
c6
fe
c6
c6
c6
c6
00
00
00
00
ENDCHAR
STARTCHAR C205
ENCODING 133
SWIDTH 384 0
DWIDTH 8 0
BBX 8 16 0 -4
BITMAP
38
6c
38
00
38
6c
c6
c6
fe
c6
c6
c6
00
00
00
00
ENDCHAR
STARTCHAR C206
ENCODING 134
SWIDTH 384 0
DWIDTH 8 0
BBX 8 16 0 -4
BITMAP
00
00
3e
78
d8
d8
fc
d8
d8
d8
d8
de
00
00
00
00
ENDCHAR
STARTCHAR C207
ENCODING 135
SWIDTH 384 0
DWIDTH 8 0
BBX 8 16 0 -4
BITMAP
00
00
3c
66
c2
c0
c0
c0
c0
c2
66
3c
0c
66
3c
00
ENDCHAR
STARTCHAR C210
ENCODING 136
SWIDTH 384 0
DWIDTH 8 0
BBX 8 16 0 -4
BITMAP
60
30
00
fe
66
60
60
7c
60
60
66
fe
00
00
00
00
ENDCHAR
STARTCHAR C211
ENCODING 137
SWIDTH 384 0
DWIDTH 8 0
BBX 8 16 0 -4
BITMAP
0c
18
00
fe
66
60
60
7c
60
60
66
fe
00
00
00
00
ENDCHAR
STARTCHAR C212
ENCODING 138
SWIDTH 384 0
DWIDTH 8 0
BBX 8 16 0 -4
BITMAP
10
38
6c
00
fe
66
60
7c
60
60
66
fe
00
00
00
00
ENDCHAR
STARTCHAR C213
ENCODING 139
SWIDTH 384 0
DWIDTH 8 0
BBX 8 16 0 -4
BITMAP
00
6c
00
fe
66
60
60
7c
60
60
66
fe
00
00
00
00
ENDCHAR
STARTCHAR C214
ENCODING 140
SWIDTH 384 0
DWIDTH 8 0
BBX 8 16 0 -4
BITMAP
60
30
00
3c
18
18
18
18
18
18
18
3c
08
00
00
00
ENDCHAR
STARTCHAR C215
ENCODING 141
SWIDTH 384 0
DWIDTH 8 0
BBX 8 16 0 -4
BITMAP
06
0c
00
3c
18
18
18
18
18
18
18
3c
00
00
00
00
ENDCHAR
STARTCHAR C216
ENCODING 142
SWIDTH 384 0
DWIDTH 8 0
BBX 8 16 0 -4
BITMAP
18
3c
66
00
3c
18
18
18
18
18
18
3c
00
00
00
00
ENDCHAR
STARTCHAR C217
ENCODING 143
SWIDTH 384 0
DWIDTH 8 0
BBX 8 16 0 -4
BITMAP
00
66
00
3c
18
18
18
18
18
18
18
3c
00
00
00
00
ENDCHAR
STARTCHAR C220
ENCODING 144
SWIDTH 384 0
DWIDTH 8 0
BBX 8 16 0 -4
BITMAP
00
00
f8
6c
66
66
f6
66
66
66
6c
f8
00
00
00
00
ENDCHAR
STARTCHAR C221
ENCODING 145
SWIDTH 384 0
DWIDTH 8 0
BBX 8 16 0 -4
BITMAP
76
dc
00
c6
e6
f6
fe
de
ce
c6
c6
c6
00
00
00
00
ENDCHAR
STARTCHAR C222
ENCODING 146
SWIDTH 384 0
DWIDTH 8 0
BBX 8 16 0 -4
BITMAP
60
30
00
7c
c6
c6
c6
c6
c6
c6
c6
7c
00
00
00
00
ENDCHAR
STARTCHAR C223
ENCODING 147
SWIDTH 384 0
DWIDTH 8 0
BBX 8 16 0 -4
BITMAP
0c
18
00
7c
c6
c6
c6
c6
c6
c6
c6
7c
00
00
00
00
ENDCHAR
STARTCHAR C224
ENCODING 148
SWIDTH 384 0
DWIDTH 8 0
BBX 8 16 0 -4
BITMAP
10
38
6c
00
7c
c6
c6
c6
c6
c6
c6
7c
00
00
00
00
ENDCHAR
STARTCHAR C225
ENCODING 149
SWIDTH 384 0
DWIDTH 8 0
BBX 8 16 0 -4
BITMAP
76
dc
00
7c
c6
c6
c6
c6
c6
c6
c6
7c
00
00
00
00
ENDCHAR
STARTCHAR C226
ENCODING 150
SWIDTH 384 0
DWIDTH 8 0
BBX 8 16 0 -4
BITMAP
00
6c
00
7c
c6
c6
c6
c6
c6
c6
c6
7c
00
00
00
00
ENDCHAR
STARTCHAR C227
ENCODING 151
SWIDTH 384 0
DWIDTH 8 0
BBX 8 16 0 -4
BITMAP
00
00
00
00
00
66
3c
18
3c
66
00
00
00
00
00
00
ENDCHAR
STARTCHAR C230
ENCODING 152
SWIDTH 384 0
DWIDTH 8 0
BBX 8 16 0 -4
BITMAP
00
00
7e
c6
ce
ce
de
f6
e6
e6
c6
fc
00
00
00
00
ENDCHAR
STARTCHAR C231
ENCODING 153
SWIDTH 384 0
DWIDTH 8 0
BBX 8 16 0 -4
BITMAP
60
30
00
c6
c6
c6
c6
c6
c6
c6
c6
7c
00
00
00
00
ENDCHAR
STARTCHAR C232
ENCODING 154
SWIDTH 384 0
DWIDTH 8 0
BBX 8 16 0 -4
BITMAP
0c
18
00
c6
c6
c6
c6
c6
c6
c6
c6
7c
00
00
00
00
ENDCHAR
STARTCHAR C233
ENCODING 155
SWIDTH 384 0
DWIDTH 8 0
BBX 8 16 0 -4
BITMAP
10
38
6c
00
c6
c6
c6
c6
c6
c6
c6
7c
00
00
00
00
ENDCHAR
STARTCHAR C234
ENCODING 156
SWIDTH 384 0
DWIDTH 8 0
BBX 8 16 0 -4
BITMAP
00
6c
00
c6
c6
c6
c6
c6
c6
c6
c6
7c
00
00
00
00
ENDCHAR
STARTCHAR C235
ENCODING 157
SWIDTH 384 0
DWIDTH 8 0
BBX 8 16 0 -4
BITMAP
06
0c
00
66
66
66
66
3c
18
18
18
3c
00
00
00
00
ENDCHAR
STARTCHAR C236
ENCODING 158
SWIDTH 384 0
DWIDTH 8 0
BBX 8 16 0 -4
BITMAP
00
00
f0
60
7c
66
66
66
66
7c
60
f0
00
00
00
00
ENDCHAR
STARTCHAR C237
ENCODING 159
SWIDTH 384 0
DWIDTH 8 0
BBX 8 16 0 -4
BITMAP
00
00
7c
c6
c6
c6
cc
c6
c6
c6
d6
dc
80
00
00
00
ENDCHAR
STARTCHAR nobreakspace
ENCODING 160
SWIDTH 384 0
DWIDTH 8 0
BBX 8 16 0 -4
BITMAP
00
00
00
00
00
00
00
00
00
00
00
00
00
00
00
00
ENDCHAR
STARTCHAR exclamdown
ENCODING 161
SWIDTH 384 0
DWIDTH 8 0
BBX 8 16 0 -4
BITMAP
00
00
00
00
00
3c
42
22
42
42
42
42
00
00
00
00
ENDCHAR
STARTCHAR cent
ENCODING 162
SWIDTH 384 0
DWIDTH 8 0
BBX 8 16 0 -4
BITMAP
00
00
00
00
00
32
5a
2a
12
12
12
3e
00
00
00
00
ENDCHAR
STARTCHAR sterling
ENCODING 163
SWIDTH 384 0
DWIDTH 8 0
BBX 8 16 0 -4
BITMAP
00
00
00
00
00
72
aa
da
b2
52
12
3e
00
00
00
00
ENDCHAR
STARTCHAR currency
ENCODING 164
SWIDTH 384 0
DWIDTH 8 0
BBX 8 16 0 -4
BITMAP
00
00
00
00
00
7c
82
b2
ea
d2
42
42
00
00
00
00
ENDCHAR
STARTCHAR yen
ENCODING 165
SWIDTH 384 0
DWIDTH 8 0
BBX 8 16 0 -4
BITMAP
00
00
00
00
00
6c
92
b2
ea
d2
42
42
00
00
00
00
ENDCHAR
STARTCHAR brokenbar
ENCODING 166
SWIDTH 384 0
DWIDTH 8 0
BBX 8 16 0 -4
BITMAP
00
00
00
00
00
52
aa
da
b2
5a
56
32
00
00
00
00
ENDCHAR
STARTCHAR section
ENCODING 167
SWIDTH 384 0
DWIDTH 8 0
BBX 8 16 0 -4
BITMAP
00
00
00
00
00
06
0a
46
22
12
0a
06
00
00
00
00
ENDCHAR
STARTCHAR diaeresis
ENCODING 168
SWIDTH 384 0
DWIDTH 8 0
BBX 8 16 0 -4
BITMAP
00
00
00
00
00
3c
42
12
2a
16
02
02
00
00
00
00
ENDCHAR
STARTCHAR copyright
ENCODING 169
SWIDTH 384 0
DWIDTH 8 0
BBX 8 16 0 -4
BITMAP
00
00
00
00
00
3c
42
22
52
37
1b
12
00
00
00
00
ENDCHAR
STARTCHAR ordfeminine
ENCODING 170
SWIDTH 384 0
DWIDTH 8 0
BBX 8 16 0 -4
BITMAP
00
00
00
00
00
32
5c
2a
12
12
12
3e
00
00
00
00
ENDCHAR
STARTCHAR guillemotleft
ENCODING 171
SWIDTH 384 0
DWIDTH 8 0
BBX 8 16 0 -4
BITMAP
00
00
00
00
00
72
ac
da
b2
52
12
3e
00
00
00
00
ENDCHAR
STARTCHAR notsign
ENCODING 172
SWIDTH 384 0
DWIDTH 8 0
BBX 8 16 0 -4
BITMAP
00
00
00
00
00
72
8a
4a
8a
da
ae
5a
00
00
00
00
ENDCHAR
STARTCHAR hyphen
ENCODING 173
SWIDTH 384 0
DWIDTH 8 0
BBX 8 16 0 -4
BITMAP
00
00
00
00
00
72
8a
4a
8a
ca
aa
44
0a
0c
00
00
ENDCHAR
STARTCHAR registered
ENCODING 174
SWIDTH 384 0
DWIDTH 8 0
BBX 8 16 0 -4
BITMAP
00
00
00
00
00
3c
42
22
22
62
aa
5a
2a
16
00
00
ENDCHAR
STARTCHAR macron
ENCODING 175
SWIDTH 384 0
DWIDTH 8 0
BBX 8 16 0 -4
BITMAP
00
00
00
00
00
3c
42
22
22
62
aa
72
56
2a
00
00
ENDCHAR
STARTCHAR degree
ENCODING 176
SWIDTH 384 0
DWIDTH 8 0
BBX 8 16 0 -4
BITMAP
00
00
00
00
00
3a
7c
12
2a
1e
06
12
66
aa
54
00
ENDCHAR
STARTCHAR plusminus
ENCODING 177
SWIDTH 384 0
DWIDTH 8 0
BBX 8 16 0 -4
BITMAP
00
00
00
00
00
54
ae
da
b2
62
22
22
00
00
00
00
ENDCHAR
STARTCHAR twosuperior
ENCODING 178
SWIDTH 384 0
DWIDTH 8 0
BBX 8 16 0 -4
BITMAP
00
00
00
00
00
52
aa
8a
ea
aa
de
9a
00
00
00
00
ENDCHAR
STARTCHAR threesuperior
ENCODING 179
SWIDTH 384 0
DWIDTH 8 0
BBX 8 16 0 -4
BITMAP
00
00
00
00
00
64
94
54
94
de
be
54
00
00
00
00
ENDCHAR
STARTCHAR acute
ENCODING 180
SWIDTH 384 0
DWIDTH 8 0
BBX 8 16 0 -4
BITMAP
00
00
00
00
00
38
44
92
aa
92
62
42
00
00
00
00
ENDCHAR
STARTCHAR mu
ENCODING 181
SWIDTH 384 0
DWIDTH 8 0
BBX 8 16 0 -4
BITMAP
00
00
00
00
00
6c
92
92
aa
92
62
42
00
00
00
00
ENDCHAR
STARTCHAR paragraph
ENCODING 182
SWIDTH 384 0
DWIDTH 8 0
BBX 8 16 0 -4
BITMAP
00
00
00
00
00
3c
42
22
42
62
52
22
00
00
00
00
ENDCHAR
STARTCHAR periodcentered
ENCODING 183
SWIDTH 384 0
DWIDTH 8 0
BBX 8 16 0 -4
BITMAP
00
00
00
00
00
4c
b2
62
22
22
22
22
00
00
00
00
ENDCHAR
STARTCHAR cedilla
ENCODING 184
SWIDTH 384 0
DWIDTH 8 0
BBX 8 16 0 -4
BITMAP
00
00
00
00
00
3e
7c
12
12
12
12
3e
00
00
00
00
ENDCHAR
STARTCHAR onesuperior
ENCODING 185
SWIDTH 384 0
DWIDTH 8 0
BBX 8 16 0 -4
BITMAP
00
00
00
00
00
44
a4
64
24
2e
36
24
00
00
00
00
ENDCHAR
STARTCHAR masculine
ENCODING 186
SWIDTH 384 0
DWIDTH 8 0
BBX 8 16 0 -4
BITMAP
00
00
00
00
00
42
a2
62
22
22
22
3e
00
00
00
00
ENDCHAR
STARTCHAR guillemotright
ENCODING 187
SWIDTH 384 0
DWIDTH 8 0
BBX 8 16 0 -4
BITMAP
00
00
00
02
02
42
a2
62
22
22
22
3e
00
00
00
00
ENDCHAR
STARTCHAR onequarter
ENCODING 188
SWIDTH 384 0
DWIDTH 8 0
BBX 8 16 0 -4
BITMAP
00
00
00
00
00
22
52
62
42
5a
66
42
00
00
00
00
ENDCHAR
STARTCHAR onehalf
ENCODING 189
SWIDTH 384 0
DWIDTH 8 0
BBX 8 16 0 -4
BITMAP
00
00
00
02
02
22
52
62
42
5a
66
42
00
00
00
00
ENDCHAR
STARTCHAR threequarters
ENCODING 190
SWIDTH 384 0
DWIDTH 8 0
BBX 8 16 0 -4
BITMAP
00
00
00
00
00
42
a2
6a
2a
2a
36
22
00
00
00
00
ENDCHAR
STARTCHAR questiondown
ENCODING 191
SWIDTH 384 0
DWIDTH 8 0
BBX 8 16 0 -4
BITMAP
00
00
00
02
02
42
a2
6a
2a
2a
36
22
00
00
00
00
ENDCHAR
STARTCHAR Agrave
ENCODING 192
SWIDTH 384 0
DWIDTH 8 0
BBX 8 16 0 -4
BITMAP
00
00
00
00
00
3c
42
22
22
62
a2
42
00
00
00
00
ENDCHAR
STARTCHAR Aacute
ENCODING 193
SWIDTH 384 0
DWIDTH 8 0
BBX 8 16 0 -4
BITMAP
00
00
00
00
00
62
b2
52
32
5a
56
32
00
00
00
00
ENDCHAR
STARTCHAR Acircumflex
ENCODING 194
SWIDTH 384 0
DWIDTH 8 0
BBX 8 16 0 -4
BITMAP
00
00
00
00
00
22
52
62
3a
42
42
3e
00
00
00
00
ENDCHAR
STARTCHAR Atilde
ENCODING 195
SWIDTH 384 0
DWIDTH 8 0
BBX 8 16 0 -4
BITMAP
00
00
00
00
00
3e
7c
02
02
06
0a
06
00
00
00
00
ENDCHAR
STARTCHAR Adiaeresis
ENCODING 196
SWIDTH 384 0
DWIDTH 8 0
BBX 8 16 0 -4
BITMAP
00
00
00
00
00
3c
42
22
42
62
52
22
02
02
00
00
ENDCHAR
STARTCHAR Aring
ENCODING 197
SWIDTH 384 0
DWIDTH 8 0
BBX 8 16 0 -4
BITMAP
00
00
00
00
00
3c
42
32
4a
66
52
22
00
00
00
00
ENDCHAR
STARTCHAR AE
ENCODING 198
SWIDTH 384 0
DWIDTH 8 0
BBX 8 16 0 -4
BITMAP
00
00
00
00
00
3c
42
22
22
62
a2
42
02
02
00
00
ENDCHAR
STARTCHAR Ccedilla
ENCODING 199
SWIDTH 384 0
DWIDTH 8 0
BBX 8 16 0 -4
BITMAP
00
00
00
00
00
3c
42
02
02
06
0a
06
00
00
00
00
ENDCHAR
STARTCHAR Egrave
ENCODING 200
SWIDTH 384 0
DWIDTH 8 0
BBX 8 16 0 -4
BITMAP
00
00
00
00
00
7a
84
b2
ea
d2
42
42
00
00
00
00
ENDCHAR
STARTCHAR Eacute
ENCODING 201
SWIDTH 384 0
DWIDTH 8 0
BBX 8 16 0 -4
BITMAP
00
00
00
00
00
42
a2
6a
36
2e
22
3e
00
00
00
00
ENDCHAR
STARTCHAR Ecircumflex
ENCODING 202
SWIDTH 384 0
DWIDTH 8 0
BBX 8 16 0 -4
BITMAP
00
00
00
00
00
3a
44
32
4a
66
52
22
00
00
00
00
ENDCHAR
STARTCHAR Ediaeresis
ENCODING 203
SWIDTH 384 0
DWIDTH 8 0
BBX 8 16 0 -4
BITMAP
00
00
00
00
00
44
aa
64
2a
32
22
22
00
00
00
00
ENDCHAR
STARTCHAR Igrave
ENCODING 204
SWIDTH 384 0
DWIDTH 8 0
BBX 8 16 0 -4
BITMAP
00
00
00
00
00
45
a6
6a
2a
2a
36
22
00
00
00
00
ENDCHAR
STARTCHAR Iacute
ENCODING 205
SWIDTH 384 0
DWIDTH 8 0
BBX 8 16 0 -4
BITMAP
00
00
00
00
00
3c
42
12
2a
32
22
7e
00
00
00
00
ENDCHAR
STARTCHAR Icircumflex
ENCODING 206
SWIDTH 384 0
DWIDTH 8 0
BBX 8 16 0 -4
BITMAP
00
00
00
00
00
3a
7e
12
2a
32
22
7e
00
00
00
00
ENDCHAR
STARTCHAR Idiaeresis
ENCODING 207
SWIDTH 384 0
DWIDTH 8 0
BBX 8 16 0 -4
BITMAP
00
00
00
00
00
22
52
66
3a
02
02
1c
00
00
00
00
ENDCHAR
STARTCHAR ETH
ENCODING 208
SWIDTH 384 0
DWIDTH 8 0
BBX 8 16 0 -4
BITMAP
00
00
00
00
00
22
54
38
00
22
54
38
00
00
00
00
ENDCHAR
STARTCHAR Ntilde
ENCODING 209
SWIDTH 0 0
DWIDTH 0 0
BBX 8 16 -8 -4
BITMAP
00
00
19
1e
00
00
00
00
00
00
00
00
00
00
00
00
ENDCHAR
STARTCHAR Ograve
ENCODING 210
SWIDTH 384 0
DWIDTH 8 0
BBX 8 16 0 -4
BITMAP
00
00
00
00
00
3c
42
02
02
02
02
02
00
00
00
00
ENDCHAR
STARTCHAR Oacute
ENCODING 211
SWIDTH 384 0
DWIDTH 8 0
BBX 16 16 -8 -4
BITMAP
0000
0400
0a00
0400
0000
003c
0042
0002
0002
0002
0002
0002
0000
0000
0000
0000
ENDCHAR
STARTCHAR Ocircumflex
ENCODING 212
SWIDTH 0 0
DWIDTH 0 0
BBX 8 16 -8 -4
BITMAP
00
00
3c
7e
00
00
00
00
00
00
00
00
00
00
00
00
ENDCHAR
STARTCHAR Otilde
ENCODING 213
SWIDTH 0 0
DWIDTH 0 0
BBX 8 16 -8 -4
BITMAP
00
00
3a
7e
00
00
00
00
00
00
00
00
00
00
00
00
ENDCHAR
STARTCHAR Odiaeresis
ENCODING 214
SWIDTH 0 0
DWIDTH 0 0
BBX 8 16 -8 -4
BITMAP
00
04
3a
7c
00
00
00
00
00
00
00
00
00
00
00
00
ENDCHAR
STARTCHAR multiply
ENCODING 215
SWIDTH 0 0
DWIDTH 0 0
BBX 8 16 -8 -4
BITMAP
00
0a
3a
7e
00
00
00
00
00
00
00
00
00
00
00
00
ENDCHAR
STARTCHAR Ooblique
ENCODING 216
SWIDTH 0 0
DWIDTH 0 0
BBX 8 16 -8 -4
BITMAP
00
00
00
00
00
00
00
00
00
00
00
00
04
0a
06
02
ENDCHAR
STARTCHAR Ugrave
ENCODING 217
SWIDTH 0 0
DWIDTH 0 0
BBX 8 16 -8 -4
BITMAP
00
00
00
00
00
00
00
00
00
00
00
00
12
2a
1a
0e
ENDCHAR
STARTCHAR Uacute
ENCODING 218
SWIDTH 0 0
DWIDTH 0 0
BBX 8 16 -8 -4
BITMAP
00
00
00
00
00
00
00
00
00
00
00
00
00
06
06
00
ENDCHAR
STARTCHAR Ucircumflex
ENCODING 219
SWIDTH 384 0
DWIDTH 8 0
BBX 8 16 0 -4
BITMAP
00
00
00
00
00
00
00
00
00
00
00
00
00
00
00
00
ENDCHAR
STARTCHAR Udiaeresis
ENCODING 220
SWIDTH 384 0
DWIDTH 8 0
BBX 8 16 0 -4
BITMAP
00
00
00
00
00
00
00
00
00
00
00
7e
42
00
00
00
ENDCHAR
STARTCHAR Yacute
ENCODING 221
SWIDTH 384 0
DWIDTH 8 0
BBX 8 16 0 -4
BITMAP
00
00
00
00
00
00
00
00
00
00
00
00
00
00
00
00
ENDCHAR
STARTCHAR THORN
ENCODING 222
SWIDTH 384 0
DWIDTH 8 0
BBX 8 16 0 -4
BITMAP
00
00
00
00
00
00
00
00
00
00
00
00
00
00
00
00
ENDCHAR
STARTCHAR ssharp
ENCODING 223
SWIDTH 384 0
DWIDTH 8 0
BBX 8 16 0 -4
BITMAP
00
10
10
fc
52
52
54
7e
52
52
52
fc
10
10
00
00
ENDCHAR
STARTCHAR agrave
ENCODING 224
SWIDTH 384 0
DWIDTH 8 0
BBX 8 16 0 -4
BITMAP
00
00
00
00
00
10
10
10
10
18
14
08
00
00
00
00
ENDCHAR
STARTCHAR aacute
ENCODING 225
SWIDTH 384 0
DWIDTH 8 0
BBX 8 16 0 -4
BITMAP
00
00
00
00
00
48
48
48
48
6c
5a
24
00
00
00
00
ENDCHAR
STARTCHAR acircumflex
ENCODING 226
SWIDTH 384 0
DWIDTH 8 0
BBX 8 16 0 -4
BITMAP
00
74
c8
20
10
10
10
10
10
18
14
08
00
00
00
00
ENDCHAR
STARTCHAR atilde
ENCODING 227
SWIDTH 384 0
DWIDTH 8 0
BBX 8 16 0 -4
BITMAP
00
38
44
64
54
28
08
08
08
0c
0a
04
00
00
00
00
ENDCHAR
STARTCHAR adiaeresis
ENCODING 228
SWIDTH 384 0
DWIDTH 8 0
BBX 8 16 0 -4
BITMAP
00
88
54
24
08
08
08
08
08
0c
0a
04
00
00
00
00
ENDCHAR
STARTCHAR aring
ENCODING 229
SWIDTH 384 0
DWIDTH 8 0
BBX 8 16 0 -4
BITMAP
00
00
00
00
00
3c
42
02
02
02
02
02
02
02
00
00
ENDCHAR
STARTCHAR ae
ENCODING 230
SWIDTH 384 0
DWIDTH 8 0
BBX 8 16 0 -4
BITMAP
00
00
00
00
00
2c
52
62
52
24
08
08
08
08
08
00
ENDCHAR
STARTCHAR ccedilla
ENCODING 231
SWIDTH 0 0
DWIDTH 0 0
BBX 8 16 -8 -4
BITMAP
04
38
54
28
00
00
00
00
00
00
00
00
00
00
00
00
ENDCHAR
STARTCHAR egrave
ENCODING 232
SWIDTH 0 0
DWIDTH 0 0
BBX 8 16 -8 -2
BITMAP
02
02
02
00
00
00
00
00
00
00
00
00
00
00
00
00
ENDCHAR
STARTCHAR eacute
ENCODING 233
SWIDTH 0 0
DWIDTH 0 0
BBX 8 16 -8 -2
BITMAP
0d
06
0c
00
00
00
00
00
00
00
00
00
00
00
00
00
ENDCHAR
STARTCHAR ecircumflex
ENCODING 234
SWIDTH 0 0
DWIDTH 0 0
BBX 8 16 -8 -2
BITMAP
15
2e
34
00
00
00
00
00
00
00
00
00
00
00
00
00
ENDCHAR
STARTCHAR ediaeresis
ENCODING 235
SWIDTH 0 0
DWIDTH 0 0
BBX 8 16 -8 -2
BITMAP
02
07
02
00
00
00
00
00
00
00
00
00
00
00
00
00
ENDCHAR
STARTCHAR igrave
ENCODING 236
SWIDTH 0 0
DWIDTH 0 0
BBX 8 16 -8 -2
BITMAP
03
04
06
00
00
00
00
00
00
00
00
00
00
00
00
00
ENDCHAR
STARTCHAR iacute
ENCODING 237
SWIDTH 0 0
DWIDTH 0 0
BBX 8 16 -8 -4
BITMAP
00
04
0a
04
00
00
00
00
00
00
00
00
00
00
00
00
ENDCHAR
STARTCHAR icircumflex
ENCODING 238
SWIDTH 0 0
DWIDTH 0 0
BBX 8 16 -8 -4
BITMAP
0c
10
28
20
10
00
00
00
00
00
00
00
00
00
00
00
ENDCHAR
STARTCHAR idiaeresis
ENCODING 239
SWIDTH 384 0
DWIDTH 8 0
BBX 8 16 0 -4
BITMAP
00
00
00
00
00
3c
42
5a
5a
42
3c
00
00
00
00
00
ENDCHAR
STARTCHAR eth
ENCODING 240
SWIDTH 384 0
DWIDTH 8 0
BBX 8 16 0 -4
BITMAP
00
00
00
00
00
00
3c
42
42
42
42
3c
00
00
00
00
ENDCHAR
STARTCHAR ntilde
ENCODING 241
SWIDTH 384 0
DWIDTH 8 0
BBX 8 16 0 -4
BITMAP
00
00
00
00
00
00
3c
42
52
6a
32
0c
00
00
00
00
ENDCHAR
STARTCHAR ograve
ENCODING 242
SWIDTH 384 0
DWIDTH 8 0
BBX 8 16 0 -4
BITMAP
00
00
00
00
80
40
5a
75
69
51
41
3e
00
00
00
00
ENDCHAR
STARTCHAR oacute
ENCODING 243
SWIDTH 384 0
DWIDTH 8 0
BBX 8 16 0 -4
BITMAP
00
00
00
00
00
00
6c
92
92
c2
a2
42
00
00
00
00
ENDCHAR
STARTCHAR ocircumflex
ENCODING 244
SWIDTH 384 0
DWIDTH 8 0
BBX 8 16 0 -4
BITMAP
00
00
00
00
02
02
3c
40
90
a8
50
3e
00
00
00
00
ENDCHAR
STARTCHAR otilde
ENCODING 245
SWIDTH 384 0
DWIDTH 8 0
BBX 8 16 0 -4
BITMAP
00
00
00
00
12
2a
3c
40
90
a8
50
3e
00
00
00
00
ENDCHAR
STARTCHAR odiaeresis
ENCODING 246
SWIDTH 384 0
DWIDTH 8 0
BBX 8 16 0 -4
BITMAP
00
00
00
00
80
40
78
44
02
22
54
38
00
00
00
00
ENDCHAR
STARTCHAR division
ENCODING 247
SWIDTH 384 0
DWIDTH 8 0
BBX 8 16 0 -4
BITMAP
00
00
00
00
04
02
52
aa
8a
ca
ae
44
00
00
00
00
ENDCHAR
STARTCHAR oslash
ENCODING 248
SWIDTH 384 0
DWIDTH 8 0
BBX 8 16 0 -4
BITMAP
00
00
00
00
00
02
72
cc
80
a4
da
4c
00
00
00
00
ENDCHAR
STARTCHAR ugrave
ENCODING 249
SWIDTH 384 0
DWIDTH 8 0
BBX 8 16 0 -4
BITMAP
00
00
00
00
02
02
6c
90
88
e4
52
20
00
00
00
00
ENDCHAR
STARTCHAR uacute
ENCODING 250
SWIDTH 384 0
DWIDTH 8 0
BBX 8 16 0 -4
BITMAP
00
00
00
00
00
4a
aa
ca
7a
0a
0a
14
00
00
00
00
ENDCHAR
STARTCHAR ucircumflex
ENCODING 251
SWIDTH 384 0
DWIDTH 8 0
BBX 8 16 0 -4
BITMAP
00
00
00
00
00
40
a0
d4
9f
f8
60
00
00
00
00
00
ENDCHAR
STARTCHAR udiaeresis
ENCODING 252
SWIDTH 384 0
DWIDTH 8 0
BBX 8 16 0 -4
BITMAP
00
00
00
00
00
00
00
00
00
00
00
00
00
00
00
00
ENDCHAR
STARTCHAR yacute
ENCODING 253
SWIDTH 384 0
DWIDTH 8 0
BBX 8 16 0 -4
BITMAP
00
00
00
00
00
00
00
00
00
00
00
00
00
00
00
00
ENDCHAR
STARTCHAR thorn
ENCODING 254
SWIDTH 384 0
DWIDTH 8 0
BBX 8 16 0 -4
BITMAP
00
00
00
00
00
00
00
00
00
00
00
00
00
00
00
00
ENDCHAR
STARTCHAR ydiaeresis
ENCODING 255
SWIDTH 384 0
DWIDTH 8 0
BBX 8 16 0 -4
BITMAP
00
00
00
00
00
00
00
00
00
00
00
00
00
00
00
00
ENDCHAR
ENDFONT
